<?xml version="1.0" encoding="UTF-8"?>
<svg fill="#2EC4B6" width="100pt" height="100pt" version="1.1" viewBox="0 0 100 100" xmlns="http://www.w3.org/2000/svg">
 <g>
  <path d="m92.855 67.781h-5.0938c-0.11328-1.9727-0.37891-3.9062-0.78516-5.7969 5.1641-5.6719 8.0234-12.938 8.0234-20.633 0-11.711-6.5352-22.242-17.055-27.48-0.82422-0.41016-1.8203-0.25-2.4727 0.40234-0.65234 0.65234-0.8125 1.6445-0.40234 2.4727 1.8477 3.7109 2.7852 7.6602 2.7852 11.75 0 4.4766-1.1289 8.8164-3.2578 12.691-4.332-3.7266-9.5391-6.4727-15.312-7.9336v-6.1875c0-1.1836-0.96094-2.1445-2.1445-2.1445h-14.285c-1.1836 0-2.1445 0.96094-2.1445 2.1445v6.1875c-5.7734 1.457-10.98 4.207-15.312 7.9336-2.1289-3.8789-3.2578-8.2148-3.2578-12.691 0-4.0898 0.9375-8.0391 2.7852-11.75 0.41016-0.82422 0.24609-1.8203-0.40234-2.4688-0.65234-0.65234-1.6445-0.8125-2.4727-0.40234-10.516 5.2344-17.051 15.766-17.051 27.477 0 7.6914 2.8594 14.961 8.0234 20.633-0.40625 1.8906-0.67578 3.8242-0.78516 5.7969h-5.0938c-1.1836 0-2.1445 0.96094-2.1445 2.1445v14.285c0 1.1836 0.96094 2.1445 2.1445 2.1445h85.715c1.1836 0 2.1445-0.96094 2.1445-2.1445l-0.003906-14.285c0-1.1836-0.96094-2.1445-2.1445-2.1445zm-10.711-39.285c0-2.5195-0.30469-4.9961-0.91016-7.4062 5.957 4.9492 9.4805 12.289 9.4805 20.262 0 5.6914-1.8008 11.125-5.1328 15.641-1.7148-4.7109-4.3555-9.0469-7.7773-12.754 2.8438-4.75 4.3398-10.156 4.3398-15.742zm-7.793 18.352c0.066407 0.070313 0.13281 0.14062 0.19922 0.21094 0.54688 0.58594 1.0742 1.1914 1.5742 1.8164 0.003906 0.003906 0.007812 0.007812 0.011719 0.015625 2.6445 3.2852 4.6719 7.0703 5.9375 11.156 0.023437 0.078125 0.042969 0.15625 0.066406 0.23438 0.72656 2.4102 1.1953 4.9219 1.3594 7.5039l-24.215-0.003906v-30.125c5.8711 1.6836 11.027 4.9219 15.066 9.1914zm-55.582-25.758c-0.60547 2.4102-0.91016 4.8867-0.91016 7.4062 0 5.5859 1.4961 10.992 4.3398 15.742-3.4258 3.7031-6.0664 8.0391-7.7773 12.754-3.332-4.5156-5.1328-9.9492-5.1328-15.641-0.003906-7.9727 3.5195-15.312 9.4805-20.262zm-0.91406 39.203c0.023437-0.082031 0.046875-0.16797 0.070312-0.25 1.5117-4.875 4.1094-9.3125 7.5352-12.996 0.058593-0.0625 0.11719-0.125 0.17578-0.18359 4.0391-4.2773 9.2031-7.5195 15.078-9.207v30.129l-24.219-0.003906c0.16406-2.5742 0.63281-5.082 1.3594-7.4883zm72.859 21.773h-81.43v-10h33.57c1.1836 0 2.1445-0.96094 2.1445-2.1445v-40.711h10v40.715c0 1.1836 0.96094 2.1445 2.1445 2.1445h33.57z"/>
  <path d="m35.348 44.09c-8.5078 1.8008-14.66 9.1445-14.965 17.852-0.015624 0.45703 0.26172 0.87109 0.6875 1.0352 0.125 0.046876 0.25391 0.070313 0.38281 0.070313 0.30859 0 0.61328-0.13672 0.82031-0.38281l14.113-16.84c0.29297-0.35156 0.33203-0.84766 0.097656-1.2383-0.23047-0.39063-0.6875-0.58984-1.1367-0.49609zm-12.309 14.332c1.2578-4.9258 4.6836-9.0156 9.3086-11.109z"/>
 </g>
</svg>
