<?xml version="1.0" encoding="UTF-8"?>
<svg fill="#FF9F1C" width="100pt" height="100pt" version="1.1" viewBox="0 0 100 100" xmlns="http://www.w3.org/2000/svg">
 <path d="m38.234 17.648v-11.777c0-3.25 2.6484-5.8711 5.8945-5.8711h11.742c3.25 0 5.8945 2.6211 5.8945 5.8711v11.777c1.625 0 2.9414 1.3164 2.9414 2.9414 0 1.6211-1.3164 2.9414-2.9414 2.9414v8.8203h10.305c6.7109 0 11.305 5.5664 10.051 12.164l-8.4648 44.426c-1.1758 6.1719-7.0742 11.059-13.359 11.059h-20.594c-6.2812 0-12.188-4.8906-13.359-11.059l-8.4648-44.426c-1.2578-6.6016 3.3359-12.164 10.051-12.164h10.305v-8.8203c-1.625 0-2.9414-1.3203-2.9414-2.9414 0-1.625 1.3164-2.9414 2.9414-2.9414zm28.988 72.059c-1.3125 2.5234-4.125 4.4102-6.9258 4.4102h-20.594c-2.8008 0-5.6133-1.8867-6.9258-4.4102zm-35.867-5.8828l-6.7227-35.293h50.734l-6.7227 35.293zm45.082-41.176c0.14062-2.5781-1.6133-4.4141-4.3672-4.4141h-13.246c-1.625 0-2.9414-1.3164-2.9414-2.9414l-0.011718-11.762h-11.754v11.762c0 1.625-1.3164 2.9414-2.9414 2.9414h-13.246c-2.7539 0-4.5117 1.832-4.3672 4.4141zm-32.32-25v-11.777c0 0.011718 11.754 0.011718 11.754 0.011718 0.003906 0 0 11.766 0 11.766zm-6.3398 37.258l-0.51562 0.51562c-3.4414 3.4414-3.4414 9.0273 0 12.469l10.551 10.551c1.1523 1.1484 3.0117 1.1484 4.1602 0l10.551-10.551c3.4414-3.4414 3.4453-9.0273 0.003906-12.469l-0.51953-0.51562c-3.3164-3.3203-8.6523-3.4336-12.113-0.33203-3.4609-3.1016-8.7969-2.9883-12.117 0.33203zm3.6445 8.8242c-1.1445-1.1445-1.1445-3.0039 0-4.1484l0.51562-0.51562c1.1406-1.1406 3.0078-1.1406 4.1484 0l1.7266 1.7266c1.1523 1.1484 3.0117 1.1484 4.1602 0l1.7266-1.7266c1.1445-1.1406 3.0117-1.1406 4.1523 0l0.51563 0.51562c1.1445 1.1445 1.1445 3.0039-0.003907 4.1484l-8.4688 8.4727z" fill-rule="evenodd"/>
</svg>
