<?xml version="1.0" encoding="UTF-8"?>
<svg fill="#E71D36" width="100pt" height="100pt" version="1.1" viewBox="0 0 100 100" xmlns="http://www.w3.org/2000/svg">
 <path d="m56.523 11.957c-5.5 0-10.742 1.0625-15.586 2.9414l-9.1211-10.203c-2.2617-2.2812-6.2578-1.6758-10.648 0.67578l-3.3203-3.3789c-2.5234-2.5742-7.8555 0.66797-12.516 5.6406-4.6641 4.9727-6.9961 10.68-3.9805 13.105l2.793 1.8945c-2.4961 4.9102-2.8242 9.3438 0.19922 11.75l11.105 7.4531c-1.5352 4.5859-2.4062 9.5195-2.4062 14.715 0 22.898 19.465 42.363 43.48 42.363 24.012 0 43.477-19.465 43.477-42.363 0-25.129-19.465-44.594-43.477-44.594zm-52.172 5.8086c-0.027343-0.20312 0.03125-0.63672 0.23438-1.2422 0.5625-1.6758 1.9609-3.832 3.918-5.918 2.082-2.2188 4.1797-3.9102 5.8242-4.7305 0.375-0.1875 0.66016-0.28906 0.88672-0.35547l5.9023 6c0.37109 0.4375 0.67969 1.4492 0.61328 2.6758-0.09375 1.6797-0.85156 3.457-2.3828 5.1289-1.6758 1.832-3.4414 2.9297-5.0625 3.3359-1.1523 0.28906-2.0547 0.17969-2.5273-0.10938zm2.4141 13.008s-0.39453-2.7812 1.0078-5.6836l1.6875 1.1484c2.9453 1.8359 8.3594 1.1953 13.094-3.9805 4.7344-5.1758 4.043-11.121 1.7969-13.648l-0.023437-0.023437c2.1914-1.0664 4.2461-0.99609 4.2461-0.99609l9.3711 10.484c0.5625 0.62891 0.96094 1.4414 1.25 2.3359 1.168 3.5703 0.10938 8.9023-4.0781 13.43-5.0117 5.4141-10.691 7.2461-14.289 6.0781-0.43359-0.13672-14.062-9.1445-14.062-9.1445zm49.758 63.793c-21.453 0-39.133-17.367-39.133-38.016 0-4.4023 0.67969-8.6133 1.9062-12.547 4.9258 1.6328 12.379-0.046875 19.008-7.207 5.8555-6.3281 6.5195-13.367 4.8711-18.098 4.1602-1.5234 8.6406-2.3945 13.348-2.3945 21.766 0 39.129 17.672 39.129 40.246 0 20.648-17.68 38.016-39.129 38.016zm-8.6953-72.82c-0.003906 14.434-11.258 26.23-25.465 27.113-0.41016 2.1289-0.625 4.3281-0.625 6.5742 0 19.211 15.574 34.785 34.785 34.785 19.207 0 34.781-15.574 34.781-34.785 0-19.207-15.574-34.781-34.781-34.781-3.0039 0-5.918 0.37891-8.6953 1.0938zm-6.2266 41.691l0.078126 0.085938 12.965 12.918c0.96875 0.96484 2.5547 0.98047 3.5312 0.023438 0.32031-0.31641 0.32031-0.31641 1.6055-1.5742 1.6055-1.5703 1.6055-1.5703 3.5352-3.457 1.7188-1.6836 1.7188-1.6836 3.207-3.1445 0.48828-0.47266 1.1445-1.1211 1.9375-1.8984 0.625-0.61328 1.2852-1.2617 1.9414-1.9102 0.375-0.37109 0.375-0.37109 0.64062-0.62891l0.23828-0.23828 0.074219-0.074219c1.6367-1.832 2.5586-4.1836 2.5586-6.6641 0-5.5938-4.6406-10.137-10.371-10.137-2.7539 0-6.9844 2.7109-6.9844 2.7109s-4.3867-2.7109-7.0586-2.7109c-5.7305 0-10.371 4.543-10.371 10.137 0 2.4336 0.88672 4.7422 2.4727 6.5625z" fill-rule="evenodd"/>
</svg>
