<svg fill="#FFFFFF" xmlns="http://www.w3.org/2000/svg" xmlns:xlink="http://www.w3.org/1999/xlink" viewBox="0 0 46 45" version="1.1" x="0px" y="0px"><title>Bottle with love</title><desc>Created with Sketch.</desc><g stroke="none" stroke-width="1" fill="none" fill-rule="evenodd"><g fill="#FFFFFF"><path d="M26.0002777,5.00009101 C23.4702777,5.00009101 21.0592777,5.48909101 18.8312777,6.35309101 L14.6362777,1.65909101 C13.5952777,0.611091013 11.7572777,0.889091013 9.73727773,1.97109101 L8.20927773,0.416091013 C7.04827773,-0.767908987 4.59727773,0.724091013 2.45227773,3.01109101 C0.307277732,5.29809101 -0.764722268,7.92309101 0.622277732,9.03909101 L1.90727773,9.91109101 C0.758277732,12.170091 0.607277732,14.210091 1.99727773,15.316091 L7.10627773,18.744091 C6.40127773,20.854091 6.00027773,23.123091 6.00027773,25.513091 C6.00027773,36.046091 14.9542777,45.000091 26.0002777,45.000091 C37.0462777,45.000091 46.0002777,36.046091 46.0002777,25.513091 C46.0002777,13.954091 37.0462777,5.00009101 26.0002777,5.00009101 L26.0002777,5.00009101 L26.0002777,5.00009101 Z M2.00227773,7.67209101 C1.98927773,7.57809101 2.01627773,7.37909101 2.10927773,7.10109101 C2.36827773,6.33009101 3.01227773,5.33809101 3.91127773,4.37909101 C4.86927773,3.35709101 5.83527773,2.57909101 6.59127773,2.20209101 C6.76427773,2.11609101 6.89427773,2.06909101 6.99927773,2.03809101 L9.71327773,4.79909101 C9.88527773,5.00109101 10.0272777,5.46609101 9.99627773,6.03009101 C9.95227773,6.80309101 9.60427773,7.62009101 8.89927773,8.38909101 C8.12827773,9.23209101 7.31627773,9.73709101 6.57027773,9.92409101 C6.04027773,10.056091 5.62527773,10.007091 5.40927773,9.87309101 L2.00227773,7.67209101 L2.00227773,7.67209101 L2.00227773,7.67209101 Z M3.11227773,13.655091 C3.11227773,13.655091 2.93027773,12.377091 3.57527773,11.042091 L4.35227773,11.569091 C5.70727773,12.414091 8.19727773,12.120091 10.3752777,9.73809101 C12.5532777,7.35709101 12.2342777,4.62209101 11.2022777,3.46009101 L11.1902777,3.44909101 C12.1992777,2.95909101 13.1442777,2.99109101 13.1442777,2.99109101 L17.4552777,7.81409101 C17.7142777,8.10309101 17.8962777,8.47709101 18.0302777,8.88909101 C18.5662777,10.531091 18.0802777,12.983091 16.1532777,15.066091 C13.8482777,17.557091 11.2352777,18.399091 9.58027773,17.863091 C9.38127773,17.799091 3.11227773,13.655091 3.11227773,13.655091 L3.11227773,13.655091 L3.11227773,13.655091 Z M26.0002777,43.000091 C16.1322777,43.000091 8.00027773,35.012091 8.00027773,25.513091 C8.00027773,23.488091 8.31227773,21.552091 8.87627773,19.742091 C11.1422777,20.492091 14.5712777,19.721091 17.6202777,16.426091 C20.3132777,13.516091 20.6182777,10.277091 19.8602777,8.10209101 C21.7752777,7.40009101 23.8362777,7.00009101 26.0002777,7.00009101 C36.0122777,7.00009101 44.0002777,15.130091 44.0002777,25.513091 C44.0002777,35.012091 35.8682777,43.000091 26.0002777,43.000091 Z M22.0002777,9.50409101 C21.9982777,16.142091 16.8222777,21.570091 10.2862777,21.976091 C10.0982777,22.955091 10.0002777,23.966091 10.0002777,25.000091 C10.0002777,33.836091 17.1642777,41.000091 26.0002777,41.000091 C34.8362777,41.000091 42.0002777,33.836091 42.0002777,25.000091 C42.0002777,16.164091 34.8362777,9.00009101 26.0002777,9.00009101 C24.6192777,9.00009101 23.2782777,9.17509101 22.0002777,9.50409101 Z M19.1361742,28.6815211 L19.1721654,28.7200099 L25.1371209,34.6637677 C25.5819852,35.1070511 26.3121029,35.1136659 26.761239,34.6738449 C26.9089703,34.5291774 26.9089703,34.5291774 27.4998958,33.9505077 C28.2385527,33.2271705 28.2385527,33.2271705 29.1249409,32.3591659 C29.9155942,31.5849107 29.9155942,31.5849107 30.6013997,30.9133287 C30.8246159,30.6947421 31.128163,30.396778 31.4920843,30.0391215 C31.779053,29.757091 32.0825229,29.458629 32.3858438,29.1601705 C32.5577081,28.9910494 32.5577081,28.9910494 32.6790017,28.8716644 C32.7699694,28.7821192 32.7699694,28.7821192 32.7902034,28.7621977 L32.8229405,28.7278518 C33.5770159,27.8845423 34,26.8040104 34,25.6617072 C34,23.0893339 31.8664157,21 29.229304,21 C27.9624769,21 26.0176945,22.2459463 26.0176945,22.2459463 C26.0176945,22.2459463 23.9989852,21 22.770696,21 C20.1335843,21 18,23.0893339 18,25.6617072 C18,26.7827352 18.4073203,27.8446023 19.1361742,28.6815211 Z"></path></g></g></svg>