<?xml version="1.0" encoding="UTF-8"?>
<svg fill="#FF9F1C" width="100pt" height="100pt" version="1.1" viewBox="0 0 100 100" xmlns="http://www.w3.org/2000/svg">
 <path d="m89.238 0.39062h-9.1992c-1.5234 0-2.7539 1.2305-2.7539 2.7539v5.4492h-7.5v-5.4492c0-1.5234-1.2305-2.7539-2.7539-2.7539h-10.605c-1.5234 0-2.7539 1.2305-2.7539 2.7539v5.4492h-7.5v-5.4492c-0.019531-1.5234-1.25-2.7539-2.7734-2.7539h-10.41c-1.5234 0-2.7539 1.2305-2.7539 2.7539v5.4492h-7.5v-5.4492c0-1.5234-1.25-2.7539-2.7539-2.7539h-9.2188c-1.5234 0-2.7539 1.2305-2.7539 2.7539v27.539c0 1.5234 1.2305 2.7539 2.7539 2.7539h11.25l-7.6953 63.086c-0.19531 1.6406 1.0742 3.0859 2.7344 3.0859h65.898c1.6602 0 2.9297-1.4453 2.7344-3.0859l-7.6953-63.086h11.25c1.5234 0 2.7539-1.2305 2.7539-2.7539v-27.539c0-1.5234-1.2305-2.7539-2.7539-2.7539zm-33.164 93.711h-12.148v-17.871h12.148zm23.77 0h-18.242v-20.625c0-1.5234-1.2305-2.7539-2.7539-2.7539h-17.676c-1.5234 0-2.7539 1.2305-2.7539 2.7539v20.625h-18.242l4.4922-36.855h4.2773c1.5234 0 2.7539-1.2305 2.7539-2.7539 0-1.5234-1.2305-2.7539-2.7539-2.7539h-3.6133l0.60547-4.9023h10.82c1.5234 0 2.7539-1.2305 2.7539-2.7539 0-1.5234-1.2305-2.7539-2.7539-2.7539h-10.137l0.95703-7.8906h44.863zm6.6406-66.172h-72.969v-22.031h3.6914v5.4492c0 1.5234 1.2305 2.7539 2.7539 2.7539h13.008c1.5234 0 2.7539-1.2305 2.7539-2.7539v-5.4492h4.9023v5.4492c0 1.5234 1.2305 2.7539 2.7539 2.7539h13.008c1.5234 0 2.7539-1.2305 2.7539-2.7539v-5.4492h5.1172v5.4492c0 1.5234 1.2305 2.7539 2.7539 2.7539h13.008c1.5234 0 2.7539-1.2305 2.7539-2.7539v-5.4492h3.6914v22.031z"/>
</svg>
